<mxfile host="app.diagrams.net" modified="2023-09-25T20:24:41.735Z" agent="Mozilla/5.0 (Windows NT 10.0; Win64; x64) AppleWebKit/537.36 (KHTML, like Gecko) Chrome/116.0.0.0 Safari/537.36" etag="XUyzCDxcJKkpKyhySCNY" version="21.7.5" type="device" pages="3">
  <diagram name="Page-1" id="o3lMShkRFmklRs4tfEAQ">
    <mxGraphModel dx="1120" dy="446" grid="1" gridSize="10" guides="1" tooltips="1" connect="1" arrows="1" fold="1" page="1" pageScale="1" pageWidth="850" pageHeight="1100" math="0" shadow="0">
      <root>
        <mxCell id="0" />
        <mxCell id="1" parent="0" />
        <mxCell id="t0XHDnxwcppS79Ennta8-26" style="edgeStyle=orthogonalEdgeStyle;rounded=0;orthogonalLoop=1;jettySize=auto;html=1;exitX=0.5;exitY=1;exitDx=0;exitDy=0;exitPerimeter=0;entryX=0.5;entryY=0;entryDx=0;entryDy=0;" parent="1" source="t0XHDnxwcppS79Ennta8-1" target="t0XHDnxwcppS79Ennta8-3" edge="1">
          <mxGeometry relative="1" as="geometry" />
        </mxCell>
        <mxCell id="t0XHDnxwcppS79Ennta8-1" value="start" style="strokeWidth=2;html=1;shape=mxgraph.flowchart.start_1;whiteSpace=wrap;" parent="1" vertex="1">
          <mxGeometry x="380.5" y="30" width="100" height="60" as="geometry" />
        </mxCell>
        <mxCell id="t0XHDnxwcppS79Ennta8-7" style="edgeStyle=orthogonalEdgeStyle;rounded=0;orthogonalLoop=1;jettySize=auto;html=1;exitX=0.5;exitY=1;exitDx=0;exitDy=0;entryX=0.5;entryY=0;entryDx=0;entryDy=0;entryPerimeter=0;" parent="1" source="t0XHDnxwcppS79Ennta8-3" target="t0XHDnxwcppS79Ennta8-5" edge="1">
          <mxGeometry relative="1" as="geometry" />
        </mxCell>
        <mxCell id="t0XHDnxwcppS79Ennta8-3" value="input jari-jari" style="shape=parallelogram;html=1;strokeWidth=2;perimeter=parallelogramPerimeter;whiteSpace=wrap;rounded=1;arcSize=12;size=0.23;" parent="1" vertex="1">
          <mxGeometry x="380.5" y="140" width="100" height="60" as="geometry" />
        </mxCell>
        <mxCell id="t0XHDnxwcppS79Ennta8-9" style="edgeStyle=orthogonalEdgeStyle;rounded=0;orthogonalLoop=1;jettySize=auto;html=1;exitX=0.5;exitY=1;exitDx=0;exitDy=0;exitPerimeter=0;entryX=0.5;entryY=0;entryDx=0;entryDy=0;" parent="1" source="t0XHDnxwcppS79Ennta8-5" target="t0XHDnxwcppS79Ennta8-8" edge="1">
          <mxGeometry relative="1" as="geometry" />
        </mxCell>
        <mxCell id="t0XHDnxwcppS79Ennta8-24" value="Y" style="edgeLabel;html=1;align=center;verticalAlign=middle;resizable=0;points=[];" parent="t0XHDnxwcppS79Ennta8-9" vertex="1" connectable="0">
          <mxGeometry x="-0.2667" y="2" relative="1" as="geometry">
            <mxPoint as="offset" />
          </mxGeometry>
        </mxCell>
        <mxCell id="t0XHDnxwcppS79Ennta8-11" style="edgeStyle=orthogonalEdgeStyle;rounded=0;orthogonalLoop=1;jettySize=auto;html=1;exitX=1;exitY=0.5;exitDx=0;exitDy=0;exitPerimeter=0;" parent="1" source="t0XHDnxwcppS79Ennta8-5" target="t0XHDnxwcppS79Ennta8-10" edge="1">
          <mxGeometry relative="1" as="geometry" />
        </mxCell>
        <mxCell id="t0XHDnxwcppS79Ennta8-23" value="N" style="edgeLabel;html=1;align=center;verticalAlign=middle;resizable=0;points=[];" parent="t0XHDnxwcppS79Ennta8-11" vertex="1" connectable="0">
          <mxGeometry x="0.3008" y="-2" relative="1" as="geometry">
            <mxPoint as="offset" />
          </mxGeometry>
        </mxCell>
        <mxCell id="t0XHDnxwcppS79Ennta8-5" value="jari-jari dapat dibagi 7" style="strokeWidth=2;html=1;shape=mxgraph.flowchart.decision;whiteSpace=wrap;" parent="1" vertex="1">
          <mxGeometry x="380" y="220" width="100" height="100" as="geometry" />
        </mxCell>
        <mxCell id="t0XHDnxwcppS79Ennta8-18" style="edgeStyle=orthogonalEdgeStyle;rounded=0;orthogonalLoop=1;jettySize=auto;html=1;exitX=0.5;exitY=1;exitDx=0;exitDy=0;" parent="1" source="t0XHDnxwcppS79Ennta8-8" edge="1">
          <mxGeometry relative="1" as="geometry">
            <mxPoint x="430" y="440" as="targetPoint" />
          </mxGeometry>
        </mxCell>
        <mxCell id="t0XHDnxwcppS79Ennta8-8" value="phi = 22/7" style="shape=parallelogram;html=1;strokeWidth=2;perimeter=parallelogramPerimeter;whiteSpace=wrap;rounded=1;arcSize=12;size=0.23;" parent="1" vertex="1">
          <mxGeometry x="365" y="350" width="130" height="50" as="geometry" />
        </mxCell>
        <mxCell id="t0XHDnxwcppS79Ennta8-14" style="edgeStyle=orthogonalEdgeStyle;rounded=0;orthogonalLoop=1;jettySize=auto;html=1;exitX=0.5;exitY=1;exitDx=0;exitDy=0;entryX=1;entryY=0.5;entryDx=0;entryDy=0;" parent="1" source="t0XHDnxwcppS79Ennta8-10" target="t0XHDnxwcppS79Ennta8-12" edge="1">
          <mxGeometry relative="1" as="geometry" />
        </mxCell>
        <mxCell id="t0XHDnxwcppS79Ennta8-10" value="phi = 3,14" style="shape=parallelogram;html=1;strokeWidth=2;perimeter=parallelogramPerimeter;whiteSpace=wrap;rounded=1;arcSize=12;size=0.23;" parent="1" vertex="1">
          <mxGeometry x="510" y="240" width="100" height="60" as="geometry" />
        </mxCell>
        <mxCell id="t0XHDnxwcppS79Ennta8-19" style="edgeStyle=orthogonalEdgeStyle;rounded=0;orthogonalLoop=1;jettySize=auto;html=1;exitX=0.5;exitY=1;exitDx=0;exitDy=0;entryX=0.5;entryY=0;entryDx=0;entryDy=0;" parent="1" source="t0XHDnxwcppS79Ennta8-12" target="t0XHDnxwcppS79Ennta8-16" edge="1">
          <mxGeometry relative="1" as="geometry" />
        </mxCell>
        <mxCell id="t0XHDnxwcppS79Ennta8-12" value="luas lingkaran = &lt;br&gt;phi x r x r" style="rounded=1;whiteSpace=wrap;html=1;absoluteArcSize=1;arcSize=14;strokeWidth=2;" parent="1" vertex="1">
          <mxGeometry x="370.5" y="440" width="110" height="60" as="geometry" />
        </mxCell>
        <mxCell id="t0XHDnxwcppS79Ennta8-21" style="edgeStyle=orthogonalEdgeStyle;rounded=0;orthogonalLoop=1;jettySize=auto;html=1;exitX=0.5;exitY=1;exitDx=0;exitDy=0;" parent="1" source="t0XHDnxwcppS79Ennta8-16" edge="1">
          <mxGeometry relative="1" as="geometry">
            <mxPoint x="426" y="650" as="targetPoint" />
          </mxGeometry>
        </mxCell>
        <mxCell id="t0XHDnxwcppS79Ennta8-16" value="menampilkan luas lingkaran" style="shape=parallelogram;html=1;strokeWidth=2;perimeter=parallelogramPerimeter;whiteSpace=wrap;rounded=1;arcSize=12;size=0.23;" parent="1" vertex="1">
          <mxGeometry x="353" y="560" width="145" height="60" as="geometry" />
        </mxCell>
        <mxCell id="t0XHDnxwcppS79Ennta8-20" value="end" style="strokeWidth=2;html=1;shape=mxgraph.flowchart.start_1;whiteSpace=wrap;" parent="1" vertex="1">
          <mxGeometry x="380" y="650" width="100" height="60" as="geometry" />
        </mxCell>
      </root>
    </mxGraphModel>
  </diagram>
  <diagram id="QnTvsW_nCsu2e09CuvkI" name="Page-2">
    <mxGraphModel dx="1120" dy="446" grid="1" gridSize="10" guides="1" tooltips="1" connect="1" arrows="1" fold="1" page="1" pageScale="1" pageWidth="850" pageHeight="1100" math="0" shadow="0">
      <root>
        <mxCell id="0" />
        <mxCell id="1" parent="0" />
      </root>
    </mxGraphModel>
  </diagram>
  <diagram id="FiBA9u0bsy5lW-T9ox0g" name="Page-3">
    <mxGraphModel dx="1318" dy="525" grid="1" gridSize="10" guides="1" tooltips="1" connect="1" arrows="1" fold="1" page="1" pageScale="1" pageWidth="850" pageHeight="1100" math="0" shadow="0">
      <root>
        <mxCell id="0" />
        <mxCell id="1" parent="0" />
        <mxCell id="gcZeL_iz2m_ylVE5pGlk-2" style="edgeStyle=orthogonalEdgeStyle;rounded=0;orthogonalLoop=1;jettySize=auto;html=1;exitX=0.5;exitY=1;exitDx=0;exitDy=0;entryX=0.5;entryY=0;entryDx=0;entryDy=0;" edge="1" parent="1" source="lchlt1vZqCCI5KC2xdCJ-1" target="lchlt1vZqCCI5KC2xdCJ-2">
          <mxGeometry relative="1" as="geometry" />
        </mxCell>
        <mxCell id="lchlt1vZqCCI5KC2xdCJ-1" value="&lt;font style=&quot;font-size: 11px;&quot;&gt;start&lt;/font&gt;" style="ellipse;whiteSpace=wrap;html=1;" vertex="1" parent="1">
          <mxGeometry x="150" y="30" width="100" height="50" as="geometry" />
        </mxCell>
        <mxCell id="gcZeL_iz2m_ylVE5pGlk-3" style="edgeStyle=orthogonalEdgeStyle;rounded=0;orthogonalLoop=1;jettySize=auto;html=1;exitX=0.5;exitY=1;exitDx=0;exitDy=0;entryX=0.5;entryY=0;entryDx=0;entryDy=0;" edge="1" parent="1" source="lchlt1vZqCCI5KC2xdCJ-2" target="lchlt1vZqCCI5KC2xdCJ-3">
          <mxGeometry relative="1" as="geometry" />
        </mxCell>
        <mxCell id="gcZeL_iz2m_ylVE5pGlk-5" style="edgeStyle=orthogonalEdgeStyle;rounded=0;orthogonalLoop=1;jettySize=auto;html=1;exitX=1;exitY=0.5;exitDx=0;exitDy=0;entryX=1;entryY=0.5;entryDx=0;entryDy=0;" edge="1" parent="1" source="lchlt1vZqCCI5KC2xdCJ-2" target="lchlt1vZqCCI5KC2xdCJ-3">
          <mxGeometry relative="1" as="geometry">
            <Array as="points">
              <mxPoint x="290" y="140" />
              <mxPoint x="290" y="240" />
            </Array>
          </mxGeometry>
        </mxCell>
        <mxCell id="gcZeL_iz2m_ylVE5pGlk-24" value="no" style="edgeLabel;html=1;align=center;verticalAlign=middle;resizable=0;points=[];" vertex="1" connectable="0" parent="gcZeL_iz2m_ylVE5pGlk-5">
          <mxGeometry x="-0.1061" y="3" relative="1" as="geometry">
            <mxPoint as="offset" />
          </mxGeometry>
        </mxCell>
        <mxCell id="lchlt1vZqCCI5KC2xdCJ-2" value="&lt;font style=&quot;font-size: 11px;&quot;&gt;input nama, NIM, kode&lt;/font&gt;" style="shape=parallelogram;perimeter=parallelogramPerimeter;whiteSpace=wrap;html=1;fixedSize=1;" vertex="1" parent="1">
          <mxGeometry x="130" y="120" width="140" height="40" as="geometry" />
        </mxCell>
        <mxCell id="gcZeL_iz2m_ylVE5pGlk-4" style="edgeStyle=orthogonalEdgeStyle;rounded=0;orthogonalLoop=1;jettySize=auto;html=1;exitX=0.5;exitY=1;exitDx=0;exitDy=0;entryX=0.5;entryY=0;entryDx=0;entryDy=0;" edge="1" parent="1" source="lchlt1vZqCCI5KC2xdCJ-3">
          <mxGeometry relative="1" as="geometry">
            <mxPoint x="200.0000000000001" y="320" as="targetPoint" />
          </mxGeometry>
        </mxCell>
        <mxCell id="gcZeL_iz2m_ylVE5pGlk-23" value="yes" style="edgeLabel;html=1;align=center;verticalAlign=middle;resizable=0;points=[];" vertex="1" connectable="0" parent="gcZeL_iz2m_ylVE5pGlk-4">
          <mxGeometry x="-0.2154" y="-2" relative="1" as="geometry">
            <mxPoint as="offset" />
          </mxGeometry>
        </mxCell>
        <mxCell id="lchlt1vZqCCI5KC2xdCJ-3" value="menyeleksi kode" style="rhombus;whiteSpace=wrap;html=1;" vertex="1" parent="1">
          <mxGeometry x="160" y="200" width="80" height="80" as="geometry" />
        </mxCell>
        <mxCell id="gcZeL_iz2m_ylVE5pGlk-18" style="edgeStyle=orthogonalEdgeStyle;rounded=0;orthogonalLoop=1;jettySize=auto;html=1;exitX=0.5;exitY=1;exitDx=0;exitDy=0;entryX=0.5;entryY=0;entryDx=0;entryDy=0;" edge="1" parent="1" source="gcZeL_iz2m_ylVE5pGlk-8" target="gcZeL_iz2m_ylVE5pGlk-13">
          <mxGeometry relative="1" as="geometry" />
        </mxCell>
        <mxCell id="gcZeL_iz2m_ylVE5pGlk-21" value="no" style="edgeLabel;html=1;align=center;verticalAlign=middle;resizable=0;points=[];" vertex="1" connectable="0" parent="gcZeL_iz2m_ylVE5pGlk-18">
          <mxGeometry x="-0.4773" y="-2" relative="1" as="geometry">
            <mxPoint as="offset" />
          </mxGeometry>
        </mxCell>
        <mxCell id="gcZeL_iz2m_ylVE5pGlk-28" style="edgeStyle=orthogonalEdgeStyle;rounded=0;orthogonalLoop=1;jettySize=auto;html=1;exitX=1;exitY=0.5;exitDx=0;exitDy=0;entryX=0;entryY=0.5;entryDx=0;entryDy=0;" edge="1" parent="1" source="gcZeL_iz2m_ylVE5pGlk-8" target="gcZeL_iz2m_ylVE5pGlk-25">
          <mxGeometry relative="1" as="geometry" />
        </mxCell>
        <mxCell id="joMPFkHwTD-JoVt_Mde_-8" value="yes" style="edgeLabel;html=1;align=center;verticalAlign=middle;resizable=0;points=[];" vertex="1" connectable="0" parent="gcZeL_iz2m_ylVE5pGlk-28">
          <mxGeometry x="-0.0353" relative="1" as="geometry">
            <mxPoint as="offset" />
          </mxGeometry>
        </mxCell>
        <mxCell id="gcZeL_iz2m_ylVE5pGlk-8" value="sisi c = (axa) + (bxb)" style="rounded=1;whiteSpace=wrap;html=1;" vertex="1" parent="1">
          <mxGeometry x="140" y="480" width="120" height="40" as="geometry" />
        </mxCell>
        <mxCell id="gcZeL_iz2m_ylVE5pGlk-16" style="edgeStyle=orthogonalEdgeStyle;rounded=0;orthogonalLoop=1;jettySize=auto;html=1;exitX=0.5;exitY=1;exitDx=0;exitDy=0;entryX=0.5;entryY=0;entryDx=0;entryDy=0;" edge="1" parent="1" source="gcZeL_iz2m_ylVE5pGlk-9" target="gcZeL_iz2m_ylVE5pGlk-10">
          <mxGeometry relative="1" as="geometry" />
        </mxCell>
        <mxCell id="gcZeL_iz2m_ylVE5pGlk-9" value="sisi segitiga = a,b,c&lt;br&gt;sisi miring = c" style="shape=hexagon;perimeter=hexagonPerimeter2;whiteSpace=wrap;html=1;fixedSize=1;" vertex="1" parent="1">
          <mxGeometry x="130" y="320" width="140" height="40" as="geometry" />
        </mxCell>
        <mxCell id="gcZeL_iz2m_ylVE5pGlk-17" style="edgeStyle=orthogonalEdgeStyle;rounded=0;orthogonalLoop=1;jettySize=auto;html=1;exitX=0.5;exitY=1;exitDx=0;exitDy=0;entryX=0.5;entryY=0;entryDx=0;entryDy=0;" edge="1" parent="1" source="gcZeL_iz2m_ylVE5pGlk-10" target="gcZeL_iz2m_ylVE5pGlk-8">
          <mxGeometry relative="1" as="geometry" />
        </mxCell>
        <mxCell id="gcZeL_iz2m_ylVE5pGlk-20" value="no" style="edgeLabel;html=1;align=center;verticalAlign=middle;resizable=0;points=[];" vertex="1" connectable="0" parent="gcZeL_iz2m_ylVE5pGlk-17">
          <mxGeometry x="-0.0682" y="-1" relative="1" as="geometry">
            <mxPoint as="offset" />
          </mxGeometry>
        </mxCell>
        <mxCell id="gcZeL_iz2m_ylVE5pGlk-10" value="input sisi&amp;nbsp; yang ingin diketuahui rumusnya" style="shape=parallelogram;perimeter=parallelogramPerimeter;whiteSpace=wrap;html=1;fixedSize=1;" vertex="1" parent="1">
          <mxGeometry x="125" y="400" width="150" height="40" as="geometry" />
        </mxCell>
        <mxCell id="gcZeL_iz2m_ylVE5pGlk-19" style="edgeStyle=orthogonalEdgeStyle;rounded=0;orthogonalLoop=1;jettySize=auto;html=1;exitX=0.5;exitY=1;exitDx=0;exitDy=0;entryX=0.5;entryY=0;entryDx=0;entryDy=0;" edge="1" parent="1" source="gcZeL_iz2m_ylVE5pGlk-13" target="gcZeL_iz2m_ylVE5pGlk-14">
          <mxGeometry relative="1" as="geometry" />
        </mxCell>
        <mxCell id="gcZeL_iz2m_ylVE5pGlk-22" value="no" style="edgeLabel;html=1;align=center;verticalAlign=middle;resizable=0;points=[];" vertex="1" connectable="0" parent="gcZeL_iz2m_ylVE5pGlk-19">
          <mxGeometry x="-0.2045" y="-2" relative="1" as="geometry">
            <mxPoint as="offset" />
          </mxGeometry>
        </mxCell>
        <mxCell id="gcZeL_iz2m_ylVE5pGlk-29" style="edgeStyle=orthogonalEdgeStyle;rounded=0;orthogonalLoop=1;jettySize=auto;html=1;exitX=1;exitY=0.5;exitDx=0;exitDy=0;entryX=0;entryY=0.5;entryDx=0;entryDy=0;" edge="1" parent="1" source="gcZeL_iz2m_ylVE5pGlk-13" target="gcZeL_iz2m_ylVE5pGlk-26">
          <mxGeometry relative="1" as="geometry" />
        </mxCell>
        <mxCell id="joMPFkHwTD-JoVt_Mde_-6" value="yes" style="edgeLabel;html=1;align=center;verticalAlign=middle;resizable=0;points=[];" vertex="1" connectable="0" parent="gcZeL_iz2m_ylVE5pGlk-29">
          <mxGeometry x="-0.2706" relative="1" as="geometry">
            <mxPoint as="offset" />
          </mxGeometry>
        </mxCell>
        <mxCell id="gcZeL_iz2m_ylVE5pGlk-13" value="sisi a = (cxc) - (bxb)" style="rounded=1;whiteSpace=wrap;html=1;" vertex="1" parent="1">
          <mxGeometry x="140" y="560" width="120" height="40" as="geometry" />
        </mxCell>
        <mxCell id="gcZeL_iz2m_ylVE5pGlk-30" style="edgeStyle=orthogonalEdgeStyle;rounded=0;orthogonalLoop=1;jettySize=auto;html=1;exitX=1;exitY=0.5;exitDx=0;exitDy=0;" edge="1" parent="1" source="gcZeL_iz2m_ylVE5pGlk-14" target="gcZeL_iz2m_ylVE5pGlk-27">
          <mxGeometry relative="1" as="geometry" />
        </mxCell>
        <mxCell id="joMPFkHwTD-JoVt_Mde_-7" value="yes" style="edgeLabel;html=1;align=center;verticalAlign=middle;resizable=0;points=[];" vertex="1" connectable="0" parent="gcZeL_iz2m_ylVE5pGlk-30">
          <mxGeometry x="-0.0689" relative="1" as="geometry">
            <mxPoint as="offset" />
          </mxGeometry>
        </mxCell>
        <mxCell id="joMPFkHwTD-JoVt_Mde_-4" style="edgeStyle=orthogonalEdgeStyle;rounded=0;orthogonalLoop=1;jettySize=auto;html=1;exitX=0.5;exitY=1;exitDx=0;exitDy=0;entryX=0.5;entryY=0;entryDx=0;entryDy=0;" edge="1" parent="1" source="gcZeL_iz2m_ylVE5pGlk-14" target="joMPFkHwTD-JoVt_Mde_-3">
          <mxGeometry relative="1" as="geometry" />
        </mxCell>
        <mxCell id="joMPFkHwTD-JoVt_Mde_-9" value="no" style="edgeLabel;html=1;align=center;verticalAlign=middle;resizable=0;points=[];" vertex="1" connectable="0" parent="joMPFkHwTD-JoVt_Mde_-4">
          <mxGeometry x="-0.1324" y="1" relative="1" as="geometry">
            <mxPoint as="offset" />
          </mxGeometry>
        </mxCell>
        <mxCell id="gcZeL_iz2m_ylVE5pGlk-14" value="sisi b = (cxc) - (axa)" style="rounded=1;whiteSpace=wrap;html=1;" vertex="1" parent="1">
          <mxGeometry x="140" y="640" width="120" height="40" as="geometry" />
        </mxCell>
        <mxCell id="joMPFkHwTD-JoVt_Mde_-17" style="edgeStyle=orthogonalEdgeStyle;rounded=0;orthogonalLoop=1;jettySize=auto;html=1;exitX=1;exitY=0.5;exitDx=0;exitDy=0;entryX=1;entryY=0.5;entryDx=0;entryDy=0;" edge="1" parent="1" source="gcZeL_iz2m_ylVE5pGlk-25" target="joMPFkHwTD-JoVt_Mde_-14">
          <mxGeometry relative="1" as="geometry">
            <Array as="points">
              <mxPoint x="600" y="500" />
              <mxPoint x="600" y="825" />
            </Array>
          </mxGeometry>
        </mxCell>
        <mxCell id="gcZeL_iz2m_ylVE5pGlk-25" value="menampilkan hasil sisi c" style="shape=parallelogram;perimeter=parallelogramPerimeter;whiteSpace=wrap;html=1;fixedSize=1;" vertex="1" parent="1">
          <mxGeometry x="320" y="480" width="160" height="40" as="geometry" />
        </mxCell>
        <mxCell id="joMPFkHwTD-JoVt_Mde_-11" style="edgeStyle=orthogonalEdgeStyle;rounded=0;orthogonalLoop=1;jettySize=auto;html=1;exitX=1;exitY=0.5;exitDx=0;exitDy=0;" edge="1" parent="1" source="gcZeL_iz2m_ylVE5pGlk-26">
          <mxGeometry relative="1" as="geometry">
            <mxPoint x="600" y="579.7058823529412" as="targetPoint" />
          </mxGeometry>
        </mxCell>
        <mxCell id="gcZeL_iz2m_ylVE5pGlk-26" value="menampilkan hasil sisi a" style="shape=parallelogram;perimeter=parallelogramPerimeter;whiteSpace=wrap;html=1;fixedSize=1;" vertex="1" parent="1">
          <mxGeometry x="320" y="560" width="160" height="40" as="geometry" />
        </mxCell>
        <mxCell id="joMPFkHwTD-JoVt_Mde_-12" style="edgeStyle=orthogonalEdgeStyle;rounded=0;orthogonalLoop=1;jettySize=auto;html=1;exitX=1;exitY=0.5;exitDx=0;exitDy=0;" edge="1" parent="1" source="gcZeL_iz2m_ylVE5pGlk-27">
          <mxGeometry relative="1" as="geometry">
            <mxPoint x="600" y="659.7058823529412" as="targetPoint" />
          </mxGeometry>
        </mxCell>
        <mxCell id="gcZeL_iz2m_ylVE5pGlk-27" value="menampilkan hasil sisi b" style="shape=parallelogram;perimeter=parallelogramPerimeter;whiteSpace=wrap;html=1;fixedSize=1;" vertex="1" parent="1">
          <mxGeometry x="320" y="640" width="160" height="40" as="geometry" />
        </mxCell>
        <mxCell id="joMPFkHwTD-JoVt_Mde_-15" style="edgeStyle=orthogonalEdgeStyle;rounded=0;orthogonalLoop=1;jettySize=auto;html=1;exitX=0.5;exitY=1;exitDx=0;exitDy=0;" edge="1" parent="1" source="joMPFkHwTD-JoVt_Mde_-3" target="joMPFkHwTD-JoVt_Mde_-14">
          <mxGeometry relative="1" as="geometry" />
        </mxCell>
        <mxCell id="joMPFkHwTD-JoVt_Mde_-3" value="input salah" style="shape=parallelogram;perimeter=parallelogramPerimeter;whiteSpace=wrap;html=1;fixedSize=1;" vertex="1" parent="1">
          <mxGeometry x="140" y="720" width="120" height="40" as="geometry" />
        </mxCell>
        <mxCell id="joMPFkHwTD-JoVt_Mde_-14" value="&lt;font style=&quot;font-size: 11px;&quot;&gt;end&lt;/font&gt;" style="ellipse;whiteSpace=wrap;html=1;" vertex="1" parent="1">
          <mxGeometry x="150" y="800" width="100" height="50" as="geometry" />
        </mxCell>
      </root>
    </mxGraphModel>
  </diagram>
</mxfile>
